<svg width="98" height="98" viewBox="0 0 98 98" fill="none" xmlns="http://www.w3.org/2000/svg">
<g filter="url(#filter0_d_0_391)">
<circle cx="55.0001" cy="43" r="40" fill="white"/>
</g>
<path d="M47.0001 48.2001C47.0001 53.0376 50.9126 56.9501 55.7501 56.9501C60.5876 56.9501 64.5001 53.0376 64.5001 48.2001V43.2001H47.0001V48.2001ZM60.9001 33.6626L63.5251 31.0376L62.5001 30.0001L59.6251 32.8876C58.4501 32.3001 57.1501 31.9501 55.7501 31.9501C54.3501 31.9501 53.0501 32.3001 51.8876 32.8876L49.0001 30.0001L47.9751 31.0376L50.6001 33.6626C48.4251 35.2501 47.0001 37.8001 47.0001 40.7001V41.9501H64.5001V40.7001C64.5001 37.8001 63.0751 35.2501 60.9001 33.6626ZM52.0001 39.4501C51.3126 39.4501 50.7501 38.8876 50.7501 38.2001C50.7501 37.5126 51.3126 36.9501 52.0001 36.9501C52.6876 36.9501 53.2501 37.5126 53.2501 38.2001C53.2501 38.8876 52.6876 39.4501 52.0001 39.4501ZM59.5001 39.4501C58.8126 39.4501 58.2501 38.8876 58.2501 38.2001C58.2501 37.5126 58.8126 36.9501 59.5001 36.9501C60.1876 36.9501 60.7501 37.5126 60.7501 38.2001C60.7501 38.8876 60.1876 39.4501 59.5001 39.4501Z" fill="#5AB2F1"/>
<defs>
<filter id="filter0_d_0_391" x="6.10352e-05" y="0" width="98" height="98" filterUnits="userSpaceOnUse" color-interpolation-filters="sRGB">
<feFlood flood-opacity="0" result="BackgroundImageFix"/>
<feColorMatrix in="SourceAlpha" type="matrix" values="0 0 0 0 0 0 0 0 0 0 0 0 0 0 0 0 0 0 127 0" result="hardAlpha"/>
<feOffset dx="-6" dy="6"/>
<feGaussianBlur stdDeviation="4.5"/>
<feColorMatrix type="matrix" values="0 0 0 0 0.333333 0 0 0 0 0.690196 0 0 0 0 0.941176 0 0 0 0.5 0"/>
<feBlend mode="normal" in2="BackgroundImageFix" result="effect1_dropShadow_0_391"/>
<feBlend mode="normal" in="SourceGraphic" in2="effect1_dropShadow_0_391" result="shape"/>
</filter>
</defs>
</svg>
